<svg width="32" height="33" viewBox="0 0 32 33" fill="none" xmlns="http://www.w3.org/2000/svg">
<path d="M16 30C24.8366 30 32 23.2843 32 15C32 6.71573 24.8366 0 16 0C7.16344 0 0 6.71573 0 15C0 23.2843 7.16344 30 16 30Z" fill="white"/>
<g filter="url(#filter0_d_5_45)">
<path d="M22.4311 18.0281C24.722 16.8375 26.4717 15.928 26.6308 15.8451C27.1056 15.5984 27.603 14.9687 26.6308 14.4653C26.3184 14.3032 24.6158 13.4216 22.4284 12.2885L19.4199 15.1672L22.4311 18.0281Z" fill="#FFE300"/>
<path d="M19.4197 15.1672L9.79736 24.3742C10.0147 24.4004 10.276 24.3457 10.5766 24.1895C11.199 23.866 17.8829 20.3919 22.4311 18.0278L19.4197 15.1672Z" fill="#FF4E54"/>
<path d="M19.4198 15.1672L22.4283 12.2885C22.4283 12.2885 11.2461 6.49528 10.5767 6.14848C10.3194 6.01514 10.0388 5.9686 9.79053 6.02111L19.4198 15.1672Z" fill="#00F085"/>
<path d="M19.4197 15.1672L9.79034 6.02124C9.3926 6.10549 9.06665 6.43237 9.06665 7.0894V23.2769C9.06665 23.8957 9.32306 24.3308 9.79723 24.3742L19.4197 15.1672Z" fill="#00E0FF"/>
</g>
<defs>
<filter id="filter0_d_5_45" x="5.06665" y="6" width="26.1219" height="26.3805" filterUnits="userSpaceOnUse" color-interpolation-filters="sRGB">
<feFlood flood-opacity="0" result="BackgroundImageFix"/>
<feColorMatrix in="SourceAlpha" type="matrix" values="0 0 0 0 0 0 0 0 0 0 0 0 0 0 0 0 0 0 127 0" result="hardAlpha"/>
<feOffset dy="4"/>
<feGaussianBlur stdDeviation="2"/>
<feComposite in2="hardAlpha" operator="out"/>
<feColorMatrix type="matrix" values="0 0 0 0 0 0 0 0 0 0 0 0 0 0 0 0 0 0 0.25 0"/>
<feBlend mode="normal" in2="BackgroundImageFix" result="effect1_dropShadow_5_45"/>
<feBlend mode="normal" in="SourceGraphic" in2="effect1_dropShadow_5_45" result="shape"/>
</filter>
</defs>
</svg>
