<svg width="24" height="24" viewBox="0 0 24 24" fill="none" xmlns="http://www.w3.org/2000/svg">
<mask id="path-1-inside-1_1_1606" fill="white">
<path d="M3 3.75C3 3.55109 3.07902 3.36032 3.21967 3.21967C3.36032 3.07902 3.55109 3 3.75 3H20.25C20.4489 3 20.6397 3.07902 20.7803 3.21967C20.921 3.36032 21 3.55109 21 3.75C21 3.94891 20.921 4.13968 20.7803 4.28033C20.6397 4.42098 20.4489 4.5 20.25 4.5H3.75C3.55109 4.5 3.36032 4.42098 3.21967 4.28033C3.07902 4.13968 3 3.94891 3 3.75ZM3 11.25C3 11.0511 3.07902 10.8603 3.21967 10.7197C3.36032 10.579 3.55109 10.5 3.75 10.5H20.25C20.4489 10.5 20.6397 10.579 20.7803 10.7197C20.921 10.8603 21 11.0511 21 11.25C21 11.4489 20.921 11.6397 20.7803 11.7803C20.6397 11.921 20.4489 12 20.25 12H3.75C3.55109 12 3.36032 11.921 3.21967 11.7803C3.07902 11.6397 3 11.4489 3 11.25ZM3.75 18C3.55109 18 3.36032 18.079 3.21967 18.2197C3.07902 18.3603 3 18.5511 3 18.75C3 18.9489 3.07902 19.1397 3.21967 19.2803C3.36032 19.421 3.55109 19.5 3.75 19.5H20.25C20.4489 19.5 20.6397 19.421 20.7803 19.2803C20.921 19.1397 21 18.9489 21 18.75C21 18.5511 20.921 18.3603 20.7803 18.2197C20.6397 18.079 20.4489 18 20.25 18H3.75Z"/>
</mask>
<path d="M3.75 3V4.5V3ZM3 18.75H1.5H3ZM3 3.75H4.5C4.5 3.94891 4.42098 4.13968 4.28033 4.28033L3.21967 3.21967L2.15901 2.15901C1.73705 2.58097 1.5 3.15326 1.5 3.75H3ZM3.21967 3.21967L4.28033 4.28033C4.13968 4.42098 3.94891 4.5 3.75 4.5V3V1.5C3.15326 1.5 2.58097 1.73705 2.15901 2.15901L3.21967 3.21967ZM3.75 3V4.5H20.25V3V1.5H3.75V3ZM20.25 3V4.5C20.0511 4.5 19.8603 4.42098 19.7197 4.28033L20.7803 3.21967L21.841 2.15901C21.419 1.73705 20.8467 1.5 20.25 1.5V3ZM20.7803 3.21967L19.7197 4.28033C19.579 4.13968 19.5 3.94891 19.5 3.75H21H22.5C22.5 3.15327 22.2629 2.58097 21.841 2.15901L20.7803 3.21967ZM21 3.75H19.5C19.5 3.55109 19.579 3.36032 19.7197 3.21967L20.7803 4.28033L21.841 5.34099C22.2629 4.91903 22.5 4.34673 22.5 3.75H21ZM20.7803 4.28033L19.7197 3.21967C19.8603 3.07902 20.0511 3 20.25 3V4.5V6C20.8467 6 21.419 5.76295 21.841 5.34099L20.7803 4.28033ZM20.25 4.5V3H3.75V4.5V6H20.25V4.5ZM3.75 4.5V3C3.94891 3 4.13968 3.07902 4.28033 3.21967L3.21967 4.28033L2.15901 5.34099C2.58097 5.76295 3.15326 6 3.75 6V4.5ZM3.21967 4.28033L4.28033 3.21967C4.42098 3.36032 4.5 3.55109 4.5 3.75H3H1.5C1.5 4.34674 1.73705 4.91903 2.15901 5.34099L3.21967 4.28033ZM3 11.25H4.5C4.5 11.4489 4.42098 11.6397 4.28033 11.7803L3.21967 10.7197L2.15901 9.65901C1.73705 10.081 1.5 10.6533 1.5 11.25H3ZM3.21967 10.7197L4.28033 11.7803C4.13968 11.921 3.94891 12 3.75 12V10.5V9C3.15326 9 2.58097 9.23705 2.15901 9.65901L3.21967 10.7197ZM3.75 10.5V12H20.25V10.5V9H3.75V10.5ZM20.25 10.5V12C20.0511 12 19.8603 11.921 19.7197 11.7803L20.7803 10.7197L21.841 9.65901C21.419 9.23705 20.8467 9 20.25 9V10.5ZM20.7803 10.7197L19.7197 11.7803C19.579 11.6397 19.5 11.4489 19.5 11.25H21H22.5C22.5 10.6533 22.2629 10.081 21.841 9.65901L20.7803 10.7197ZM21 11.25H19.5C19.5 11.0511 19.579 10.8603 19.7197 10.7197L20.7803 11.7803L21.841 12.841C22.2629 12.419 22.5 11.8467 22.5 11.25H21ZM20.7803 11.7803L19.7197 10.7197C19.8603 10.579 20.0511 10.5 20.25 10.5V12V13.5C20.8467 13.5 21.419 13.2629 21.841 12.841L20.7803 11.7803ZM20.25 12V10.5H3.75V12V13.5H20.25V12ZM3.75 12V10.5C3.94891 10.5 4.13968 10.579 4.28033 10.7197L3.21967 11.7803L2.15901 12.841C2.58097 13.2629 3.15326 13.5 3.75 13.5V12ZM3.21967 11.7803L4.28033 10.7197C4.42098 10.8603 4.5 11.0511 4.5 11.25H3H1.5C1.5 11.8467 1.73705 12.419 2.15901 12.841L3.21967 11.7803ZM3.75 18V16.5C3.15327 16.5 2.58097 16.7371 2.15901 17.159L3.21967 18.2197L4.28033 19.2803C4.13968 19.421 3.94891 19.5 3.75 19.5V18ZM3.21967 18.2197L2.15901 17.159C1.73705 17.581 1.5 18.1533 1.5 18.75H3H4.5C4.5 18.9489 4.42098 19.1397 4.28033 19.2803L3.21967 18.2197ZM3 18.75H1.5C1.5 19.3467 1.73705 19.919 2.15901 20.341L3.21967 19.2803L4.28033 18.2197C4.42098 18.3603 4.5 18.5511 4.5 18.75H3ZM3.21967 19.2803L2.15901 20.341C2.58097 20.7629 3.15327 21 3.75 21V19.5V18C3.94891 18 4.13968 18.079 4.28033 18.2197L3.21967 19.2803ZM3.75 19.5V21H20.25V19.5V18H3.75V19.5ZM20.25 19.5V21C20.8467 21 21.419 20.763 21.841 20.341L20.7803 19.2803L19.7197 18.2197C19.8603 18.079 20.0511 18 20.25 18V19.5ZM20.7803 19.2803L21.841 20.341C22.263 19.919 22.5 19.3467 22.5 18.75H21H19.5C19.5 18.5511 19.579 18.3603 19.7197 18.2197L20.7803 19.2803ZM21 18.75H22.5C22.5 18.1533 22.263 17.581 21.841 17.159L20.7803 18.2197L19.7197 19.2803C19.579 19.1397 19.5 18.9489 19.5 18.75H21ZM20.7803 18.2197L21.841 17.159C21.419 16.737 20.8467 16.5 20.25 16.5V18V19.5C20.0511 19.5 19.8603 19.421 19.7197 19.2803L20.7803 18.2197ZM20.25 18V16.5H3.75V18V19.5H20.25V18Z" fill="#FF6B35" mask="url(#path-1-inside-1_1_1606)"/>
</svg>
