<svg width="0" height="0" class="hidden">
  <symbol fill="none" xmlns="http://www.w3.org/2000/svg" viewBox="0 0 24 24" id="close-icon">
    <path d="M18 5.91L6 18.09" stroke="#FF6B35" stroke-width="1.5" stroke-linecap="round" stroke-linejoin="round"></path>
    <path d="M6 5.91L18 18.09" stroke="#FF6B35" stroke-width="1.5" stroke-linecap="round" stroke-linejoin="round"></path>
  </symbol>
  <symbol fill="none" xmlns="http://www.w3.org/2000/svg" viewBox="0 0 32 33" id="GooglePlay">
    <path d="M16 30C24.8366 30 32 23.2843 32 15C32 6.71573 24.8366 0 16 0C7.16344 0 0 6.71573 0 15C0 23.2843 7.16344 30 16 30Z" fill="white"></path>
    <g filter="url(#filter0_d_5_45)">
      <path d="M22.4311 18.0281C24.722 16.8375 26.4717 15.928 26.6308 15.8451C27.1056 15.5984 27.603 14.9687 26.6308 14.4653C26.3184 14.3032 24.6158 13.4216 22.4284 12.2885L19.4199 15.1672L22.4311 18.0281Z" fill="#FFE300"></path>
      <path d="M19.4197 15.1672L9.79736 24.3742C10.0147 24.4004 10.276 24.3457 10.5766 24.1895C11.199 23.866 17.8829 20.3919 22.4311 18.0278L19.4197 15.1672Z" fill="#FF4E54"></path>
      <path d="M19.4198 15.1672L22.4283 12.2885C22.4283 12.2885 11.2461 6.49528 10.5767 6.14848C10.3194 6.01514 10.0388 5.9686 9.79053 6.02111L19.4198 15.1672Z" fill="#00F085"></path>
      <path d="M19.4197 15.1672L9.79034 6.02124C9.3926 6.10549 9.06665 6.43237 9.06665 7.0894V23.2769C9.06665 23.8957 9.32306 24.3308 9.79723 24.3742L19.4197 15.1672Z" fill="#00E0FF"></path>
    </g>
    <defs>
      <filter id="filter0_d_5_45" x="5.06665" y="6" width="26.1219" height="26.3805" filterUnits="userSpaceOnUse" color-interpolation-filters="sRGB">
        <feFlood flood-opacity="0" result="BackgroundImageFix"></feFlood>
        <feColorMatrix in="SourceAlpha" type="matrix" values="0 0 0 0 0 0 0 0 0 0 0 0 0 0 0 0 0 0 127 0" result="hardAlpha"></feColorMatrix>
        <feOffset dy="4"></feOffset>
        <feGaussianBlur stdDeviation="2"></feGaussianBlur>
        <feComposite in2="hardAlpha" operator="out"></feComposite>
        <feColorMatrix type="matrix" values="0 0 0 0 0 0 0 0 0 0 0 0 0 0 0 0 0 0 0.25 0"></feColorMatrix>
        <feBlend mode="normal" in2="BackgroundImageFix" result="effect1_dropShadow_5_45"></feBlend>
        <feBlend mode="normal" in="SourceGraphic" in2="effect1_dropShadow_5_45" result="shape"></feBlend>
      </filter>
    </defs>
  </symbol>
  <symbol fill="none" xmlns="http://www.w3.org/2000/svg" viewBox="0 0 24 24" id="menu-burger">
    <mask id="path-1-inside-1_1_1606" fill="white">
      <path d="M3 3.75C3 3.55109 3.07902 3.36032 3.21967 3.21967C3.36032 3.07902 3.55109 3 3.75 3H20.25C20.4489 3 20.6397 3.07902 20.7803 3.21967C20.921 3.36032 21 3.55109 21 3.75C21 3.94891 20.921 4.13968 20.7803 4.28033C20.6397 4.42098 20.4489 4.5 20.25 4.5H3.75C3.55109 4.5 3.36032 4.42098 3.21967 4.28033C3.07902 4.13968 3 3.94891 3 3.75ZM3 11.25C3 11.0511 3.07902 10.8603 3.21967 10.7197C3.36032 10.579 3.55109 10.5 3.75 10.5H20.25C20.4489 10.5 20.6397 10.579 20.7803 10.7197C20.921 10.8603 21 11.0511 21 11.25C21 11.4489 20.921 11.6397 20.7803 11.7803C20.6397 11.921 20.4489 12 20.25 12H3.75C3.55109 12 3.36032 11.921 3.21967 11.7803C3.07902 11.6397 3 11.4489 3 11.25ZM3.75 18C3.55109 18 3.36032 18.079 3.21967 18.2197C3.07902 18.3603 3 18.5511 3 18.75C3 18.9489 3.07902 19.1397 3.21967 19.2803C3.36032 19.421 3.55109 19.5 3.75 19.5H20.25C20.4489 19.5 20.6397 19.421 20.7803 19.2803C20.921 19.1397 21 18.9489 21 18.75C21 18.5511 20.921 18.3603 20.7803 18.2197C20.6397 18.079 20.4489 18 20.25 18H3.75Z"></path>
    </mask>
    <path d="M3.75 3V4.5V3ZM3 18.75H1.5H3ZM3 3.75H4.5C4.5 3.94891 4.42098 4.13968 4.28033 4.28033L3.21967 3.21967L2.15901 2.15901C1.73705 2.58097 1.5 3.15326 1.5 3.75H3ZM3.21967 3.21967L4.28033 4.28033C4.13968 4.42098 3.94891 4.5 3.75 4.5V3V1.5C3.15326 1.5 2.58097 1.73705 2.15901 2.15901L3.21967 3.21967ZM3.75 3V4.5H20.25V3V1.5H3.75V3ZM20.25 3V4.5C20.0511 4.5 19.8603 4.42098 19.7197 4.28033L20.7803 3.21967L21.841 2.15901C21.419 1.73705 20.8467 1.5 20.25 1.5V3ZM20.7803 3.21967L19.7197 4.28033C19.579 4.13968 19.5 3.94891 19.5 3.75H21H22.5C22.5 3.15327 22.2629 2.58097 21.841 2.15901L20.7803 3.21967ZM21 3.75H19.5C19.5 3.55109 19.579 3.36032 19.7197 3.21967L20.7803 4.28033L21.841 5.34099C22.2629 4.91903 22.5 4.34673 22.5 3.75H21ZM20.7803 4.28033L19.7197 3.21967C19.8603 3.07902 20.0511 3 20.25 3V4.5V6C20.8467 6 21.419 5.76295 21.841 5.34099L20.7803 4.28033ZM20.25 4.5V3H3.75V4.5V6H20.25V4.5ZM3.75 4.5V3C3.94891 3 4.13968 3.07902 4.28033 3.21967L3.21967 4.28033L2.15901 5.34099C2.58097 5.76295 3.15326 6 3.75 6V4.5ZM3.21967 4.28033L4.28033 3.21967C4.42098 3.36032 4.5 3.55109 4.5 3.75H3H1.5C1.5 4.34674 1.73705 4.91903 2.15901 5.34099L3.21967 4.28033ZM3 11.25H4.5C4.5 11.4489 4.42098 11.6397 4.28033 11.7803L3.21967 10.7197L2.15901 9.65901C1.73705 10.081 1.5 10.6533 1.5 11.25H3ZM3.21967 10.7197L4.28033 11.7803C4.13968 11.921 3.94891 12 3.75 12V10.5V9C3.15326 9 2.58097 9.23705 2.15901 9.65901L3.21967 10.7197ZM3.75 10.5V12H20.25V10.5V9H3.75V10.5ZM20.25 10.5V12C20.0511 12 19.8603 11.921 19.7197 11.7803L20.7803 10.7197L21.841 9.65901C21.419 9.23705 20.8467 9 20.25 9V10.5ZM20.7803 10.7197L19.7197 11.7803C19.579 11.6397 19.5 11.4489 19.5 11.25H21H22.5C22.5 10.6533 22.2629 10.081 21.841 9.65901L20.7803 10.7197ZM21 11.25H19.5C19.5 11.0511 19.579 10.8603 19.7197 10.7197L20.7803 11.7803L21.841 12.841C22.2629 12.419 22.5 11.8467 22.5 11.25H21ZM20.7803 11.7803L19.7197 10.7197C19.8603 10.579 20.0511 10.5 20.25 10.5V12V13.5C20.8467 13.5 21.419 13.2629 21.841 12.841L20.7803 11.7803ZM20.25 12V10.5H3.75V12V13.5H20.25V12ZM3.75 12V10.5C3.94891 10.5 4.13968 10.579 4.28033 10.7197L3.21967 11.7803L2.15901 12.841C2.58097 13.2629 3.15326 13.5 3.75 13.5V12ZM3.21967 11.7803L4.28033 10.7197C4.42098 10.8603 4.5 11.0511 4.5 11.25H3H1.5C1.5 11.8467 1.73705 12.419 2.15901 12.841L3.21967 11.7803ZM3.75 18V16.5C3.15327 16.5 2.58097 16.7371 2.15901 17.159L3.21967 18.2197L4.28033 19.2803C4.13968 19.421 3.94891 19.5 3.75 19.5V18ZM3.21967 18.2197L2.15901 17.159C1.73705 17.581 1.5 18.1533 1.5 18.75H3H4.5C4.5 18.9489 4.42098 19.1397 4.28033 19.2803L3.21967 18.2197ZM3 18.75H1.5C1.5 19.3467 1.73705 19.919 2.15901 20.341L3.21967 19.2803L4.28033 18.2197C4.42098 18.3603 4.5 18.5511 4.5 18.75H3ZM3.21967 19.2803L2.15901 20.341C2.58097 20.7629 3.15327 21 3.75 21V19.5V18C3.94891 18 4.13968 18.079 4.28033 18.2197L3.21967 19.2803ZM3.75 19.5V21H20.25V19.5V18H3.75V19.5ZM20.25 19.5V21C20.8467 21 21.419 20.763 21.841 20.341L20.7803 19.2803L19.7197 18.2197C19.8603 18.079 20.0511 18 20.25 18V19.5ZM20.7803 19.2803L21.841 20.341C22.263 19.919 22.5 19.3467 22.5 18.75H21H19.5C19.5 18.5511 19.579 18.3603 19.7197 18.2197L20.7803 19.2803ZM21 18.75H22.5C22.5 18.1533 22.263 17.581 21.841 17.159L20.7803 18.2197L19.7197 19.2803C19.579 19.1397 19.5 18.9489 19.5 18.75H21ZM20.7803 18.2197L21.841 17.159C21.419 16.737 20.8467 16.5 20.25 16.5V18V19.5C20.0511 19.5 19.8603 19.421 19.7197 19.2803L20.7803 18.2197ZM20.25 18V16.5H3.75V18V19.5H20.25V18Z" fill="#FF6B35" mask="url(#path-1-inside-1_1_1606)"></path>
  </symbol>
    <symbol fill="none" xmlns="http://www.w3.org/2000/svg" viewBox="0 0 30 24" id="Vector (3)">
    <path d="M2.69333 23.3333C1.92556 23.3333 1.285 23.0767 0.771667 22.5633C0.258333 22.05 0.00111111 21.4089 0 20.64V2.69333C0 1.92556 0.257222 1.285 0.771667 0.771666C1.28611 0.258333 1.92611 0.00111111 2.69167 0H27.3083C28.075 0 28.715 0.257222 29.2283 0.771666C29.7417 1.28611 29.9989 1.92667 30 2.69333V20.6417C30 21.4083 29.7428 22.0489 29.2283 22.5633C28.7139 23.0778 28.0739 23.3344 27.3083 23.3333H2.69333ZM15 11.86L1.66667 3.14167V20.6417C1.66667 20.9406 1.76278 21.1861 1.955 21.3783C2.14722 21.5706 2.39333 21.6667 2.69333 21.6667H27.3083C27.6072 21.6667 27.8528 21.5706 28.045 21.3783C28.2372 21.1861 28.3333 20.94 28.3333 20.64V3.14L15 11.86ZM15 10L27.82 1.66667H2.18L15 10ZM1.66667 3.14167V1.66667V20.6417C1.66667 20.9406 1.76278 21.1861 1.955 21.3783C2.14722 21.5706 2.39333 21.6667 2.69333 21.6667H1.66667V3.14167Z" fill="#4E9F3D"></path>
  </symbol>

  <symbol fill="none" xmlns="http://www.w3.org/2000/svg" viewBox="0 0 47 47" id="Vector (2)">
    <g filter="url(#filter0_dd_246_342)">
      <path d="M15.7812 32L17.8125 22.7566L11 16.5395L20 15.7171L23.5 7L27 15.7171L36 16.5395L29.1875 22.7566L31.2188 32L23.5 27.0987L15.7812 32Z" fill="#FFB800"></path>
      <path d="M26.5361 15.9033L26.6504 16.1875L26.9541 16.2148L34.8252 16.9336L28.8506 22.3877L28.6367 22.582L28.6992 22.8643L30.4727 30.9336L23.7676 26.6768L23.5 26.5068L23.2324 26.6768L16.5264 30.9336L18.3008 22.8643L18.3633 22.582L18.1494 22.3877L12.1738 16.9336L20.0459 16.2148L20.3496 16.1875L20.4639 15.9033L23.5 8.34082L26.5361 15.9033Z" stroke="#FF6B35"></path>
    </g>
    <defs>
      <filter id="filter0_dd_246_342" x="0" y="0" width="47" height="47" filterUnits="userSpaceOnUse" color-interpolation-filters="sRGB">
        <feFlood flood-opacity="0" result="BackgroundImageFix"></feFlood>
        <feColorMatrix in="SourceAlpha" type="matrix" values="0 0 0 0 0 0 0 0 0 0 0 0 0 0 0 0 0 0 127 0" result="hardAlpha"></feColorMatrix>
        <feOffset dy="1"></feOffset>
        <feGaussianBlur stdDeviation="1.5"></feGaussianBlur>
        <feColorMatrix type="matrix" values="0 0 0 0 0 0 0 0 0 0 0 0 0 0 0 0 0 0 0.3 0"></feColorMatrix>
        <feBlend mode="normal" in2="BackgroundImageFix" result="effect1_dropShadow_246_342"></feBlend>
        <feColorMatrix in="SourceAlpha" type="matrix" values="0 0 0 0 0 0 0 0 0 0 0 0 0 0 0 0 0 0 127 0" result="hardAlpha"></feColorMatrix>
        <feMorphology radius="3" operator="dilate" in="SourceAlpha" result="effect2_dropShadow_246_342"></feMorphology>
        <feOffset dy="4"></feOffset>
        <feGaussianBlur stdDeviation="4"></feGaussianBlur>
        <feColorMatrix type="matrix" values="0 0 0 0 0 0 0 0 0 0 0 0 0 0 0 0 0 0 0.15 0"></feColorMatrix>
        <feBlend mode="normal" in2="effect1_dropShadow_246_342" result="effect2_dropShadow_246_342"></feBlend>
        <feBlend mode="normal" in="SourceGraphic" in2="effect2_dropShadow_246_342" result="shape"></feBlend>
      </filter>
    </defs>
  </symbol>
  <symbol fill="none" xmlns="http://www.w3.org/2000/svg" viewBox="0 0 34 15" id="Arrow 2">
    <path d="M0.293327 8.07112C-0.0971947 7.6806 -0.0971947 7.04743 0.293327 6.65691L6.65729 0.292946C7.04781 -0.0975785 7.68098 -0.0975785 8.0715 0.292946C8.46203 0.68347 8.46203 1.31664 8.0715 1.70716L2.41465 7.36401L8.0715 13.0209C8.46203 13.4114 8.46203 14.0446 8.0715 14.4351C7.68098 14.8256 7.04781 14.8256 6.65729 14.4351L0.293327 8.07112ZM33.2227 7.36401V8.36401H1.00043V7.36401V6.36401H33.2227V7.36401Z" fill="#FF6B35"></path>
  </symbol>

</svg>


